<?xml version="1.0" encoding="utf-8"?>
<!-- Generator: Adobe Illustrator 19.2.1, SVG Export Plug-In . SVG Version: 6.00 Build 0)  -->
<svg version="1.1" id="Layer_1" xmlns="http://www.w3.org/2000/svg" xmlns:xlink="http://www.w3.org/1999/xlink" x="0px" y="0px"
	 viewBox="0 0 368 368" style="enable-background:new 0 0 368 368;" xml:space="preserve">
<style type="text/css">
	.st0{fill:#F4F4F4;}
</style>
<path class="st0" d="M184,0C82.4,0,0,82.4,0,184s82.4,184,184,184s184-82.4,184-184S285.6,0,184,0z M63.7,92h238.7
	c3,0,3.6,1.6,1.3,3.6L188.3,194c-2.4,1.9-6.2,1.9-8.6,0L62.4,95.5C60.1,93.5,60.6,92,63.7,92z M50,258.4h0.1V112.5c0-3,1.9-4,4.3-2
	l74.3,62.3c2.3,2,2.5,5.5,0.4,7.7l-75.2,79.3C51.7,262.1,50,261.5,50,258.4z M300.9,276.1H67.2c-3,0-3.8-1.9-1.7-4.1l76.4-80.7
	c2.1-2.2,5.7-2.4,8.1-0.4l24.5,20.3c2.3,2,5.8,4.5,7.7,5.6c0,0,0,0,1.9,0c1.9,0,1.9,0,1.9,0c1.9-1.1,5.4-3.6,7.7-5.6l24.1-20.5
	c2.4-2.1,6-1.8,8.1,0.4l76.7,80.9C304.8,274.2,304,276.1,300.9,276.1z M314.1,259.9l-75.3-79.6c-2.1-2.3-1.9-5.7,0.4-7.7l74.6-63.4
	c2.3-2,4.2-1.2,4.2,1.9v147.3C318,261.5,316.2,262.1,314.1,259.9z"/>
</svg>
