<?xml version="1.0" encoding="utf-8"?>
<!-- Generator: Adobe Illustrator 19.2.1, SVG Export Plug-In . SVG Version: 6.00 Build 0)  -->
<svg version="1.1" id="Layer_1" xmlns="http://www.w3.org/2000/svg" xmlns:xlink="http://www.w3.org/1999/xlink" x="0px" y="0px"
	 viewBox="0 0 164 164" style="enable-background:new 0 0 164 164;" xml:space="preserve">
<style type="text/css">
	.st0{fill:#F4F4F4;}
</style>
<path class="st0" d="M82,0C36.7,0,0,36.7,0,82s36.7,82,82,82s82-36.7,82-82S127.3,0,82,0z M123.1,60.9c0,0.9,0.1,1.8,0.1,2.7
	c0,28-21.3,60.4-60.4,60.4c-12,0-23.1-3.5-32.5-9.5c1.7,0.2,3.3,0.3,5.1,0.3c9.9,0,19.1-3.4,26.4-9.1C52.5,105.5,44.7,99.4,42,91
	c1.3,0.2,2.6,0.4,4,0.4c1.9,0,3.8-0.3,5.6-0.7c-9.7-2-17-10.5-17-20.8c0-0.1,0-0.2,0-0.3c2.9,1.6,6.1,2.5,9.6,2.7
	c-5.7-3.8-9.4-10.3-9.4-17.7c0-3.9,1-7.5,2.9-10.7C48,56.7,63.6,65.1,81.2,66c-0.4-1.6-0.5-3.2-0.5-4.8c0-11.7,9.5-21.2,21.2-21.2
	c6.1,0,11.6,2.6,15.5,6.7c4.8-1,9.4-2.7,13.5-5.1c-1.6,5-4.9,9.1-9.3,11.7c4.3-0.5,8.4-1.7,12.2-3.3
	C130.9,54.2,127.3,57.9,123.1,60.9z"/>
</svg>
